<?xml version="1.0" encoding="UTF-8" standalone="no"?>
<!-- Created with Inkscape (http://www.inkscape.org/) -->

<svg
   xmlns:dc="http://purl.org/dc/elements/1.1/"
   xmlns:cc="http://creativecommons.org/ns#"
   xmlns:rdf="http://www.w3.org/1999/02/22-rdf-syntax-ns#"
   xmlns:svg="http://www.w3.org/2000/svg"
   xmlns="http://www.w3.org/2000/svg"
   xmlns:sodipodi="http://sodipodi.sourceforge.net/DTD/sodipodi-0.dtd"
   xmlns:inkscape="http://www.inkscape.org/namespaces/inkscape"
   width="210mm"
   height="297mm"
   viewBox="0 0 210 297"
   version="1.1"
   id="svg8"
   inkscape:version="0.92.4 (5da689c313, 2019-01-14)"
   sodipodi:docname="oaansari-11.svg"
   inkscape:export-filename="C:\Users\osama\Desktop\drawing.png"
   inkscape:export-xdpi="96"
   inkscape:export-ydpi="96">
  <defs
     id="defs2" />
  <sodipodi:namedview
     id="base"
     pagecolor="#ffffff"
     bordercolor="#666666"
     borderopacity="1.0"
     inkscape:pageopacity="0.0"
     inkscape:pageshadow="2"
     inkscape:zoom="0.98994949"
     inkscape:cx="125.26917"
     inkscape:cy="695.89219"
     inkscape:document-units="mm"
     inkscape:current-layer="layer1"
     showgrid="false"
     inkscape:window-width="1920"
     inkscape:window-height="1017"
     inkscape:window-x="-8"
     inkscape:window-y="595"
     inkscape:window-maximized="1"
     inkscape:pagecheckerboard="true" />
  <metadata
     id="metadata5">
    <rdf:RDF>
      <cc:Work
         rdf:about="">
        <dc:format>image/svg+xml</dc:format>
        <dc:type
           rdf:resource="http://purl.org/dc/dcmitype/StillImage" />
        <dc:title></dc:title>
      </cc:Work>
    </rdf:RDF>
  </metadata>
  <g
     inkscape:label="Layer 1"
     inkscape:groupmode="layer"
     id="layer1">
    <text
       xml:space="preserve"
       style="font-style:normal;font-weight:normal;font-size:14.02101421px;line-height:1.25;font-family:sans-serif;letter-spacing:0px;word-spacing:0px;fill:#000000;fill-opacity:1;stroke:none;stroke-width:0.35052535"
       x="75.199013"
       y="141.59665"
       id="text6465"><tspan
         sodipodi:role="line"
         x="75.199013"
         y="141.59665"
         style="font-style:normal;font-variant:normal;font-weight:normal;font-stretch:normal;font-family:'Monotype Corsiva';-inkscape-font-specification:'Monotype Corsiva';stroke-width:0.35052535"
         id="tspan6467"><tspan
   id="tspan6469"
   style="font-style:normal;font-variant:normal;font-weight:normal;font-stretch:normal;font-size:46.73671722px;font-family:'Monotype Corsiva';-inkscape-font-specification:'Monotype Corsiva';stroke-width:0.35052535">Dragon </tspan> </tspan></text>
    <text
       xml:space="preserve"
       style="font-style:normal;font-weight:normal;font-size:14.02101421px;line-height:1.25;font-family:sans-serif;letter-spacing:0px;word-spacing:0px;fill:#000000;fill-opacity:1;stroke:none;stroke-width:0.35052535"
       x="78.704262"
       y="155.61766"
       id="text6473"
       inkscape:export-xdpi="96"
       inkscape:export-ydpi="96"><tspan
         sodipodi:role="line"
         id="tspan6471"
         x="78.704262"
         y="155.61766"
         style="font-style:normal;font-variant:normal;font-weight:normal;font-stretch:normal;font-family:'Monotype Corsiva';-inkscape-font-specification:'Monotype Corsiva';stroke-width:0.35052535;fill:#0047ff;fill-opacity:1">Consulting</tspan></text>
    <path
       inkscape:connector-curvature="0"
       style="fill:#000000;stroke:#0047ff;stroke-width:0.52916664;stroke-miterlimit:4;stroke-dasharray:none;stroke-opacity:1"
       d="m 40.137085,111.88929 a 7.6884677,4.6238337 12.480998 0 0 -1.900142,0.20361 8.5487152,5.8604403 29.181716 0 1 3.297988,0.56844 8.1358432,8.1358432 0 0 0 -0.965316,0.22634 7.688468,4.6238339 4.8923314 0 0 -1.512567,-0.22634 7.688468,4.6238339 4.8923314 0 0 -2.80293,0.0755 7.688468,4.6238339 4.8923314 0 0 -1.856219,0.45268 8.5487157,5.8604409 21.593049 0 1 4.483965,0.41031 8.1358432,8.1358432 0 0 0 -0.482658,0.28009 7.6884677,4.6238337 4.8923314 0 0 -1.444873,0.11472 7.6884677,4.6238337 4.8923314 0 0 -1.856217,0.4532 8.5487157,5.8604409 21.593049 0 1 2.536796,0.001 8.1358432,8.1358432 0 0 0 -2.151806,2.79725 5.2638697,10.053434 11.459464 0 0 -1.813327,5.17797 5.2638697,10.053434 11.459464 0 0 -0.313677,3.40496 6.7671957,15.131148 0 0 0 -0.112654,0.339 10.362579,14.543563 46.087068 0 1 -13.094807,0.1726 10.362579,14.543563 46.087068 0 1 -0.673344,-13.74593 15.207184,15.055112 0 0 0 -13.5748821,11.95379 4.1819755,12.469891 0 0 1 0.053743,-0.006 4.1819755,12.469891 0 0 1 3.6716104,6.52311 4.0299039,12.469891 0 0 1 2.7915617,-3.48144 4.0299039,12.469891 0 0 1 3.897435,9.32966 4.4100834,12.469891 0 0 1 3.022038,-3.39927 4.4100834,12.469891 0 0 1 3.833874,6.35878 7.9837721,8.2879167 0 0 1 0.559656,-0.56327 7.9837716,8.2879162 0 0 1 0.02687,-0.0248 7.9837721,8.2879167 0 0 1 0.579293,-0.47594 7.9837716,8.2879162 0 0 1 0.06615,-0.0496 7.9837721,8.2879167 0 0 1 0.583426,-0.38809 7.9837716,8.2879162 0 0 1 0.111105,-0.0661 7.9837721,8.2879167 0 0 1 0.574125,-0.3023 7.9837716,8.2879162 0 0 1 0.163814,-0.076 7.9837721,8.2879167 0 0 1 0.552421,-0.22273 7.9837716,8.2879162 0 0 1 0.21704,-0.0744 7.9837721,8.2879167 0 0 1 0.521417,-0.14986 7.9837716,8.2879162 0 0 1 0.279051,-0.0651 7.9837721,8.2879167 0 0 1 0.477491,-0.0848 7.9837716,8.2879162 0 0 1 0.33383,-0.0424 7.9837721,8.2879167 0 0 1 0.529682,-0.0382 7.9837716,8.2879162 0 0 1 0.247015,-0.009 7.9837721,8.2879167 0 0 1 2.9068,0.57774 6.7671957,15.131148 0 0 0 0,5.3e-4 7.9837713,8.2879159 0 0 1 5.766573,7.95559 7.9837713,8.2879159 0 0 1 -0.925526,3.84679 12.336826,11.633495 0 0 0 -1.342554,5.23276 12.336826,11.633495 0 0 0 12.337232,11.63339 12.336826,11.633495 0 0 0 12.336714,-11.63339 12.336826,11.633495 0 0 0 -1.350304,-5.24361 8.2088899,10.153047 34.940645 0 1 -0.0088,0.21807 9.6540478,10.247939 34.497548 0 1 0.204639,7.43573 9.6540478,10.247939 34.497548 0 1 -12.643156,6.67866 9.6540478,10.247939 34.497548 0 1 -5.842537,-12.56358 9.6540478,10.247939 34.497548 0 1 1.923915,-3.3507 8.2088899,10.153047 34.940645 0 1 0.341579,-0.57826 7.7556653,7.1473773 0 0 1 -0.01241,-0.0134 6.7671957,15.131148 0 0 0 2.656167,-11.62254 15.207184,15.055112 0 0 0 0.0083,0.015 7.7556647,7.1473773 0 0 1 2.962093,-0.54828 7.7556647,7.1473773 0 0 1 7.712191,6.46213 4.4100831,12.469891 0 0 1 4.008541,-7.35149 4.4100831,12.469891 0 0 1 3.02152,3.39876 4.0299039,12.469891 0 0 1 3.897437,-9.32966 4.0299039,12.469891 0 0 1 2.792079,3.48196 4.1819755,12.469891 0 0 1 3.671094,-6.52364 4.1819755,12.469891 0 0 1 0.05374,0.005 15.207184,15.055112 0 0 0 -13.574882,-11.95379 v 5.3e-4 a 14.543561,10.362579 43.912932 0 1 -0.673343,13.74593 14.543561,10.362579 43.912932 0 1 -15.511198,-1.78697 15.207184,15.055112 0 0 0 -0.0036,0.0212 7.2994487,5.7787301 47.613594 0 1 -1.410766,-1.25367 7.2994487,5.7787301 47.613594 0 1 -0.817007,-1.04282 8.0038653,5.7078676 67.772669 0 1 1.053166,-3.64888 8.0038653,5.7078676 67.772669 0 1 0.283189,-0.37259 5.0670123,2.0878076 21.11799 0 0 0.49816,0.35399 5.0670123,2.0878076 21.11799 0 0 6.690548,1.6185 5.0670123,2.0878076 21.11799 0 0 0.924491,-1.0976 8.0038653,5.7078676 67.772669 0 1 0.01291,0.0134 8.1358432,8.1358432 0 0 0 -5.895766,-7.16339 7.6884677,4.6238337 12.480998 0 0 -2.118733,-0.67386 7.6884677,4.6238337 12.480998 0 0 -2.78846,-0.29507 z m 7.65793,4.3279 0.458886,0.74776 0.458888,0.74724 -1.43247,-0.74259 -1.432989,-0.7431 0.974101,-0.005 z"
       id="path4708-7"
       inkscape:export-xdpi="96"
       inkscape:export-ydpi="96" />
  </g>
</svg>
